<svg id="Capa_1" enable-background="new 0 0 459.362 459.362" height="512" viewBox="0 0 459.362 459.362" width="512" xmlns="http://www.w3.org/2000/svg"><g><g><g fill="#344d5c"><path d="m343.116 420.999c-18.258 0-40.757-7.633-66.101-22.749-39.91-23.746-82.563-63.306-120.127-111.398s-65.701-99.026-79.121-143.475c-13.869-45.895-10.426-79.82 9.678-95.584s53.928-10.826 95.085 13.719c39.91 23.746 82.563 63.306 120.127 111.398 79.82 102.119 110.3 207.081 69.443 239.059-8.365 6.196-18.58 9.378-28.984 9.03m-226.687-372.607c-8.253-.358-16.387 2.066-23.098 6.884-16.562 12.97-18.857 44.051-6.385 85.307 13.12 43.352 40.607 93.189 77.474 140.383s78.623 85.905 117.484 109.103c37.017 22.05 67.747 27.288 84.309 14.368 35.419-27.687 2.843-131.003-71.089-225.639-36.867-47.194-78.621-85.905-117.484-109.103-23.647-14.069-44.897-21.303-61.211-21.303"/><path d="m94.179 390.318c-20.703 0-36.867-5.837-46.495-18.11-31.928-40.857 23.048-135.394 125.117-215.212s207.081-110.3 239.059-69.443-22.998 135.394-125.117 215.212c-71.438 55.825-144.323 87.553-192.564 87.553m271.835-311.244c-45.647 0-118.781 31.878-187.326 85.457-94.586 73.981-151.157 166.372-123.52 201.791s131.003 2.843 225.639-71.089 151.208-166.372 123.571-201.793c-7.633-9.727-21.003-14.368-38.313-14.368"/><path d="m206.475 459.361c-1.668.009-3.334-.092-4.989-.3-25.392-3.093-45.797-30.431-57.57-76.925-11.374-44.898-13.569-103.116-6.135-163.729 15.715-128.609 68.395-224.491 119.729-218.106 25.392 3.093 45.796 30.431 57.57 76.925 11.424 44.898 13.569 103.116 6.185 163.679-14.966 124.82-64.853 218.456-114.79 218.456m46.595-449.78c-43.701 0-91.393 94.038-105.611 210.024-7.284 59.416-4.989 116.337 5.937 160.187 10.576 41.806 28.585 67.198 49.438 69.842 1.213.073 2.429.073 3.642 0 43.701 0 91.393-94.038 105.611-210.024 7.284-59.416 4.989-116.337-5.937-160.187-10.576-41.806-28.585-67.198-49.438-69.842-1.214-.075-2.429-.075-3.642 0"/><path d="m287.591 326.014c-23.079-.051-46.135-1.485-69.044-4.291-128.459-15.764-224.441-68.444-218.256-119.929 3.093-25.392 30.431-45.796 76.925-57.57 44.898-11.424 103.116-13.569 163.729-6.185 128.609 15.764 224.492 68.444 218.107 119.729-3.093 25.392-30.431 45.797-76.925 57.57-31.047 7.356-62.88 10.873-94.785 10.476m-115.389-182.537c-31.055-.448-62.049 2.902-92.292 9.977-41.806 10.576-67.198 28.585-69.842 49.437-5.438 44.599 90.645 94.785 209.826 109.253 59.416 7.284 116.337 4.989 160.187-5.937 41.806-10.526 67.198-28.585 69.842-49.438 5.438-44.599-90.645-94.785-209.826-109.253-22.524-2.8-45.198-4.232-67.897-4.291"/></g><path d="m270.031 221.85c-4.432-22.238-26.053-36.672-48.291-32.24s-36.672 26.053-32.24 48.291c3.244 16.274 15.966 28.996 32.24 32.24 22.061 4.61 43.681-9.538 48.291-31.599 1.15-5.505 1.15-11.188 0-16.692" fill="#3a556a"/><path d="m216.203 200.897c-9.917.652-18.13 7.942-19.954 17.71-2.069 7.676.615 15.85 6.834 20.803 2.704 1.902 5.924 2.928 9.23 2.943 9.91-.668 18.114-7.951 19.954-17.71 2.059-7.686-.648-15.861-6.884-20.803-2.698-1.913-5.923-2.941-9.23-2.943" fill="#4c6578"/><path d="m221.74 270.14c-7.503-1.46-14.43-5.044-19.954-10.327 1.06.342 2.144.609 3.242.799 22.233 4.458 43.87-9.951 48.329-32.182 2.796-13.945-1.822-28.342-12.209-38.058 21.984 5.557 35.3 27.883 29.743 49.866-5.472 21.647-27.239 34.952-49 29.952z" fill="#2f4859"/><path d="m433.112 196.308c-11.268-.028-20.426 9.086-20.453 20.354-.028 11.269 9.086 20.426 20.354 20.453 11.269.028 20.426-9.086 20.453-20.354 0-.034 0-.066 0-.1-.028-11.229-9.124-20.327-20.354-20.353z" fill="#27a2db"/><circle cx="330.893" cy="411.37" fill="#e56353" r="20.404"/><path d="m366.264 55.276c-11.269-.028-20.426 9.086-20.453 20.354-.028 11.268 9.086 20.426 20.354 20.453 11.269.028 20.426-9.086 20.453-20.354 0-.016 0-.034 0-.05 0-11.248-9.105-20.375-20.354-20.403z" fill="#e56353"/><circle cx="75.172" cy="87.654" fill="#27a2db" r="20.404"/><path d="m27.829 223.846c-11.269-.028-20.426 9.086-20.453 20.354-.028 11.269 9.086 20.426 20.354 20.453 11.269.028 20.426-9.086 20.453-20.354 0-.034 0-.066 0-.1-.027-11.23-9.124-20.327-20.354-20.353z" fill="#e56353"/><g fill="#e1e6e9"><circle cx="163.573" cy="415.362" r="20.404"/><circle cx="212.611" cy="27.988" r="20.404"/></g></g></g></svg>